<mxfile host="app.diagrams.net" modified="2024-04-25T17:17:56.764Z" agent="Mozilla/5.0 (Windows NT 10.0; Win64; x64) AppleWebKit/537.36 (KHTML, like Gecko) Chrome/124.0.0.0 Safari/537.36" etag="qN4-Q_eS2Ca1Z4xpNEIe" version="24.3.0" type="github">
  <diagram name="Strona-1" id="XMEe8_cJdT2nGOJgmj7w">
    <mxGraphModel dx="2474" dy="848" grid="1" gridSize="10" guides="1" tooltips="1" connect="1" arrows="1" fold="1" page="1" pageScale="1" pageWidth="827" pageHeight="1169" math="0" shadow="0">
      <root>
        <mxCell id="0" />
        <mxCell id="1" parent="0" />
        <mxCell id="0OKeJHytdhdAyVr8vPEN-11" style="edgeStyle=orthogonalEdgeStyle;rounded=0;orthogonalLoop=1;jettySize=auto;html=1;entryX=0.5;entryY=0;entryDx=0;entryDy=0;" edge="1" parent="1" source="Nnp-KVMijq4jb0hRBXpb-1" target="Nnp-KVMijq4jb0hRBXpb-2">
          <mxGeometry relative="1" as="geometry" />
        </mxCell>
        <mxCell id="Nnp-KVMijq4jb0hRBXpb-1" value="START" style="whiteSpace=wrap;html=1;aspect=fixed;" parent="1" vertex="1">
          <mxGeometry x="415" y="10" width="80" height="80" as="geometry" />
        </mxCell>
        <mxCell id="Nnp-KVMijq4jb0hRBXpb-13" value="" style="edgeStyle=orthogonalEdgeStyle;rounded=0;orthogonalLoop=1;jettySize=auto;html=1;" parent="1" source="Nnp-KVMijq4jb0hRBXpb-2" target="Nnp-KVMijq4jb0hRBXpb-12" edge="1">
          <mxGeometry relative="1" as="geometry" />
        </mxCell>
        <mxCell id="0OKeJHytdhdAyVr8vPEN-5" value="NO" style="edgeLabel;html=1;align=center;verticalAlign=middle;resizable=0;points=[];" vertex="1" connectable="0" parent="Nnp-KVMijq4jb0hRBXpb-13">
          <mxGeometry x="-0.2224" y="1" relative="1" as="geometry">
            <mxPoint as="offset" />
          </mxGeometry>
        </mxCell>
        <mxCell id="Nnp-KVMijq4jb0hRBXpb-37" style="edgeStyle=orthogonalEdgeStyle;rounded=0;orthogonalLoop=1;jettySize=auto;html=1;exitX=1;exitY=0.5;exitDx=0;exitDy=0;entryX=0;entryY=0.5;entryDx=0;entryDy=0;" parent="1" source="Nnp-KVMijq4jb0hRBXpb-2" target="Nnp-KVMijq4jb0hRBXpb-35" edge="1">
          <mxGeometry relative="1" as="geometry" />
        </mxCell>
        <mxCell id="0OKeJHytdhdAyVr8vPEN-7" value="YES" style="edgeLabel;html=1;align=center;verticalAlign=middle;resizable=0;points=[];" vertex="1" connectable="0" parent="Nnp-KVMijq4jb0hRBXpb-37">
          <mxGeometry x="-0.148" y="2" relative="1" as="geometry">
            <mxPoint as="offset" />
          </mxGeometry>
        </mxCell>
        <mxCell id="Nnp-KVMijq4jb0hRBXpb-2" value="&lt;div&gt;Battery&lt;/div&gt;&lt;div&gt;&amp;nbsp;last full charge&lt;/div&gt;&amp;gt; 10 DAYS" style="rhombus;whiteSpace=wrap;html=1;" parent="1" vertex="1">
          <mxGeometry x="380" y="200" width="150" height="140" as="geometry" />
        </mxCell>
        <mxCell id="Nnp-KVMijq4jb0hRBXpb-9" value="SOC LIMIT = ACTUAL SOC | BCP = TRUE" style="whiteSpace=wrap;html=1;aspect=fixed;" parent="1" vertex="1">
          <mxGeometry x="950" y="230" width="80" height="80" as="geometry" />
        </mxCell>
        <mxCell id="Nnp-KVMijq4jb0hRBXpb-17" value="" style="edgeStyle=orthogonalEdgeStyle;rounded=0;orthogonalLoop=1;jettySize=auto;html=1;" parent="1" source="Nnp-KVMijq4jb0hRBXpb-12" target="Nnp-KVMijq4jb0hRBXpb-16" edge="1">
          <mxGeometry relative="1" as="geometry" />
        </mxCell>
        <mxCell id="Nnp-KVMijq4jb0hRBXpb-12" value="SET LAST MANUAL SOC | BCP = FALSE" style="whiteSpace=wrap;html=1;aspect=fixed;" parent="1" vertex="1">
          <mxGeometry x="190" y="230" width="80" height="80" as="geometry" />
        </mxCell>
        <mxCell id="Nnp-KVMijq4jb0hRBXpb-19" value="" style="edgeStyle=orthogonalEdgeStyle;rounded=0;orthogonalLoop=1;jettySize=auto;html=1;" parent="1" source="Nnp-KVMijq4jb0hRBXpb-16" target="Nnp-KVMijq4jb0hRBXpb-18" edge="1">
          <mxGeometry relative="1" as="geometry" />
        </mxCell>
        <mxCell id="0OKeJHytdhdAyVr8vPEN-4" value="NO" style="edgeLabel;html=1;align=center;verticalAlign=middle;resizable=0;points=[];" vertex="1" connectable="0" parent="Nnp-KVMijq4jb0hRBXpb-19">
          <mxGeometry x="-0.139" y="-2" relative="1" as="geometry">
            <mxPoint x="-8" y="2" as="offset" />
          </mxGeometry>
        </mxCell>
        <mxCell id="Nnp-KVMijq4jb0hRBXpb-25" value="" style="edgeStyle=orthogonalEdgeStyle;rounded=0;orthogonalLoop=1;jettySize=auto;html=1;" parent="1" source="Nnp-KVMijq4jb0hRBXpb-16" edge="1">
          <mxGeometry relative="1" as="geometry">
            <mxPoint x="120" y="390" as="targetPoint" />
          </mxGeometry>
        </mxCell>
        <mxCell id="0OKeJHytdhdAyVr8vPEN-6" value="YES" style="edgeLabel;html=1;align=center;verticalAlign=middle;resizable=0;points=[];" vertex="1" connectable="0" parent="Nnp-KVMijq4jb0hRBXpb-25">
          <mxGeometry x="-0.2875" relative="1" as="geometry">
            <mxPoint y="60" as="offset" />
          </mxGeometry>
        </mxCell>
        <mxCell id="Nnp-KVMijq4jb0hRBXpb-16" value="MPPT ?" style="rhombus;whiteSpace=wrap;html=1;" parent="1" vertex="1">
          <mxGeometry x="-10" y="230" width="80" height="80" as="geometry" />
        </mxCell>
        <mxCell id="Nnp-KVMijq4jb0hRBXpb-21" value="" style="edgeStyle=orthogonalEdgeStyle;rounded=0;orthogonalLoop=1;jettySize=auto;html=1;" parent="1" source="Nnp-KVMijq4jb0hRBXpb-18" target="Nnp-KVMijq4jb0hRBXpb-20" edge="1">
          <mxGeometry relative="1" as="geometry" />
        </mxCell>
        <mxCell id="0OKeJHytdhdAyVr8vPEN-3" value="NO" style="edgeLabel;html=1;align=center;verticalAlign=middle;resizable=0;points=[];" vertex="1" connectable="0" parent="Nnp-KVMijq4jb0hRBXpb-21">
          <mxGeometry x="-0.4205" y="-1" relative="1" as="geometry">
            <mxPoint x="-15" y="1" as="offset" />
          </mxGeometry>
        </mxCell>
        <mxCell id="Nnp-KVMijq4jb0hRBXpb-18" value="LIMIT ?" style="rhombus;whiteSpace=wrap;html=1;" parent="1" vertex="1">
          <mxGeometry x="-210" y="230" width="80" height="80" as="geometry" />
        </mxCell>
        <mxCell id="Nnp-KVMijq4jb0hRBXpb-20" value="OFF" style="rhombus;whiteSpace=wrap;html=1;" parent="1" vertex="1">
          <mxGeometry x="-410" y="230" width="80" height="80" as="geometry" />
        </mxCell>
        <mxCell id="Nnp-KVMijq4jb0hRBXpb-28" value="" style="rhombus;whiteSpace=wrap;html=1;" parent="1" vertex="1">
          <mxGeometry x="80" y="390" width="80" height="80" as="geometry" />
        </mxCell>
        <mxCell id="Nnp-KVMijq4jb0hRBXpb-31" value="SELF CONSUMTION PRIORITY" style="rounded=1;whiteSpace=wrap;html=1;" parent="1" vertex="1">
          <mxGeometry x="-110" y="130" width="280" height="60" as="geometry" />
        </mxCell>
        <mxCell id="Nnp-KVMijq4jb0hRBXpb-32" value="BATTERY CHARGING PRIORITY" style="rounded=1;whiteSpace=wrap;html=1;" parent="1" vertex="1">
          <mxGeometry x="780" y="130" width="280" height="60" as="geometry" />
        </mxCell>
        <mxCell id="Nnp-KVMijq4jb0hRBXpb-38" value="" style="edgeStyle=orthogonalEdgeStyle;rounded=0;orthogonalLoop=1;jettySize=auto;html=1;" parent="1" source="Nnp-KVMijq4jb0hRBXpb-35" target="Nnp-KVMijq4jb0hRBXpb-9" edge="1">
          <mxGeometry relative="1" as="geometry" />
        </mxCell>
        <mxCell id="0OKeJHytdhdAyVr8vPEN-8" value="NO" style="edgeLabel;html=1;align=center;verticalAlign=middle;resizable=0;points=[];" vertex="1" connectable="0" parent="Nnp-KVMijq4jb0hRBXpb-38">
          <mxGeometry x="-0.136" y="-1" relative="1" as="geometry">
            <mxPoint as="offset" />
          </mxGeometry>
        </mxCell>
        <mxCell id="Nnp-KVMijq4jb0hRBXpb-42" value="" style="edgeStyle=orthogonalEdgeStyle;rounded=0;orthogonalLoop=1;jettySize=auto;html=1;" parent="1" source="Nnp-KVMijq4jb0hRBXpb-35" target="Nnp-KVMijq4jb0hRBXpb-41" edge="1">
          <mxGeometry relative="1" as="geometry" />
        </mxCell>
        <mxCell id="0OKeJHytdhdAyVr8vPEN-9" value="YES" style="edgeLabel;html=1;align=center;verticalAlign=middle;resizable=0;points=[];" vertex="1" connectable="0" parent="Nnp-KVMijq4jb0hRBXpb-42">
          <mxGeometry x="-0.183" y="-3" relative="1" as="geometry">
            <mxPoint as="offset" />
          </mxGeometry>
        </mxCell>
        <mxCell id="Nnp-KVMijq4jb0hRBXpb-35" value="BCP ?" style="rhombus;whiteSpace=wrap;html=1;" parent="1" vertex="1">
          <mxGeometry x="730" y="230" width="80" height="80" as="geometry" />
        </mxCell>
        <mxCell id="Nnp-KVMijq4jb0hRBXpb-46" value="" style="edgeStyle=orthogonalEdgeStyle;rounded=0;orthogonalLoop=1;jettySize=auto;html=1;" parent="1" source="Nnp-KVMijq4jb0hRBXpb-41" target="Nnp-KVMijq4jb0hRBXpb-45" edge="1">
          <mxGeometry relative="1" as="geometry" />
        </mxCell>
        <mxCell id="Nnp-KVMijq4jb0hRBXpb-41" value="LIMIT?" style="rhombus;whiteSpace=wrap;html=1;" parent="1" vertex="1">
          <mxGeometry x="730" y="390" width="80" height="80" as="geometry" />
        </mxCell>
        <mxCell id="Nnp-KVMijq4jb0hRBXpb-48" value="" style="edgeStyle=orthogonalEdgeStyle;rounded=0;orthogonalLoop=1;jettySize=auto;html=1;" parent="1" source="Nnp-KVMijq4jb0hRBXpb-45" target="Nnp-KVMijq4jb0hRBXpb-47" edge="1">
          <mxGeometry relative="1" as="geometry" />
        </mxCell>
        <mxCell id="Nnp-KVMijq4jb0hRBXpb-45" value="MPPT?" style="rhombus;whiteSpace=wrap;html=1;" parent="1" vertex="1">
          <mxGeometry x="730" y="550" width="80" height="80" as="geometry" />
        </mxCell>
        <mxCell id="Nnp-KVMijq4jb0hRBXpb-47" value="OFF" style="rhombus;whiteSpace=wrap;html=1;" parent="1" vertex="1">
          <mxGeometry x="730" y="710" width="80" height="80" as="geometry" />
        </mxCell>
      </root>
    </mxGraphModel>
  </diagram>
</mxfile>
